<?xml version="1.0" encoding="UTF-8"?>
<svg id="Layer_1" data-name="Layer 1" xmlns="http://www.w3.org/2000/svg" viewBox="0 0 701.78 421.57">
  <defs>
    <style>
      .cls-1 {
        fill: #00d161;
      }

      .cls-2 {
        fill: #fff;
      }
    </style>
  </defs>
  <path class="cls-1" d="M177.32,165.39l-2.51,14.21c7.23-10.02,15.41-15.03,24.52-15.03l-4.19,23.78h-5.74c-5.38,0-9.63,1.28-12.77,3.83-3.14,2.55-5.27,7.02-6.4,13.39l-6.36,36.08h-23.37l13.45-76.27h23.37Z"/>
  <path class="cls-1" d="M245.04,217.47c3.95-3.28,6.45-7.93,7.51-13.94,1.06-6.01.19-10.64-2.61-13.87-2.8-3.23-6.39-4.85-10.76-4.85s-8.54,1.64-12.48,4.92c-3.95,3.28-6.45,7.93-7.52,13.94-1.06,6.01-.19,10.64,2.61,13.87,2.8,3.24,6.39,4.85,10.76,4.85s8.54-1.64,12.49-4.92M200.57,231.68c-5.46-7.29-7.18-16.63-5.17-28.02,2.01-11.39,7.03-20.75,15.07-28.09,8.04-7.33,16.91-11,26.61-11s16.52,3.6,20.44,10.8l6.15-34.85h23.37l-17.83,101.14h-23.37l1.95-11.07c-7.07,8.02-15.33,12.03-24.81,12.03s-16.94-3.64-22.4-10.93"/>
  <path class="cls-1" d="M438.56,217.47c3.95-3.28,6.45-7.93,7.52-13.94,1.06-6.01.19-10.64-2.61-13.87-2.8-3.23-6.39-4.85-10.76-4.85s-8.54,1.64-12.49,4.92c-3.95,3.28-6.45,7.93-7.51,13.94-1.06,6.01-.19,10.64,2.61,13.87,2.8,3.24,6.39,4.85,10.76,4.85s8.54-1.64,12.49-4.92M394.1,231.68c-5.46-7.29-7.18-16.63-5.17-28.02,2.01-11.39,7.03-20.75,15.07-28.09,8.04-7.33,16.91-11,26.61-11s16.52,3.6,20.44,10.8l1.76-9.98h23.37l-13.38,77.53c-1.88,10.66-6.36,19.54-13.45,26.65-3.56,3.64-8.04,6.47-13.45,8.47-5.41,2-11.44,3.01-18.09,3.01-11.66,0-20.49-2.37-26.49-7.11-6-4.74-8.6-11.98-7.79-21.73h22.96c1.17,5.74,6.14,8.61,14.88,8.61,4.28,0,8.09-1.44,11.42-4.31,3.33-2.87,5.54-7.4,6.64-13.6l1.88-12.33c-7.07,8.02-15.33,12.03-24.81,12.03s-16.94-3.64-22.4-10.93"/>
  <path class="cls-1" d="M523.67,217.47c3.95-3.28,6.45-7.93,7.52-13.94,1.06-6.01.19-10.64-2.61-13.87-2.8-3.23-6.39-4.85-10.76-4.85s-8.54,1.64-12.48,4.92c-3.95,3.28-6.45,7.93-7.51,13.94-1.06,6.01-.19,10.64,2.61,13.87,2.8,3.24,6.39,4.85,10.76,4.85s8.54-1.64,12.49-4.92M479.2,231.68c-5.46-7.29-7.18-16.63-5.17-28.02,2.01-11.39,7.03-20.75,15.07-28.09,8.04-7.33,16.91-11,26.61-11s16.52,3.6,20.44,10.8l1.76-9.98h23.37l-13.38,77.53c-1.88,10.66-6.36,19.54-13.45,26.65-3.56,3.64-8.04,6.47-13.45,8.47-5.41,2-11.44,3.01-18.09,3.01-11.67,0-20.49-2.37-26.49-7.11-6-4.74-8.6-11.98-7.79-21.73h22.96c1.17,5.74,6.14,8.61,14.88,8.61,4.28,0,8.09-1.44,11.42-4.31,3.33-2.87,5.54-7.4,6.64-13.6l1.88-12.33c-7.06,8.02-15.33,12.03-24.81,12.03s-16.94-3.64-22.4-10.93"/>
  <polygon class="cls-1" points="373.3 241.66 351.33 241.66 355.36 219.68 377.33 219.68 373.3 241.66"/>
  <polygon class="cls-1" points="340.84 217.91 373.13 165.39 348.67 165.39 331.19 195.66 340.84 217.91"/>
  <polygon class="cls-2" points="311.05 165.39 286.61 165.39 311.25 226.23 278.59 279.38 303.05 279.38 335.98 226.23 311.05 165.39"/>
</svg>